<svg version="1.1" id="Layer_1" xmlns="http://www.w3.org/2000/svg" xmlns:xlink="http://www.w3.org/1999/xlink" x="0px" y="0px"
	 width="100%" viewBox="0 0 560 608" enable-background="new 0 0 560 608" xml:space="preserve">
<path fill="#000000" opacity="1.000000" stroke="none" 
	d="
M337.445740,560.474304 
	C325.899506,569.541138 314.645752,578.403748 303.348877,587.211121 
	C294.367279,594.213440 289.628632,594.076599 280.666962,587.025146 
	C256.050354,567.655640 231.761734,547.839294 206.593842,529.212463 
	C192.920334,519.092651 190.462036,496.075836 209.812836,486.018402 
	C229.909103,475.573456 249.503052,464.161285 269.296600,453.135986 
	C270.993347,452.190918 273.047211,451.674164 274.373260,449.236420 
	C270.662354,445.729736 265.925720,443.655731 261.590210,441.084290 
	C235.513367,425.617859 209.282089,410.409576 183.315262,394.761871 
	C178.121536,391.632080 174.510727,391.322906 169.027588,394.687012 
	C140.208115,412.368591 111.022659,429.453735 81.968292,446.752686 
	C80.300285,447.745819 78.667465,448.798035 76.065987,450.414368 
	C84.564789,453.475952 91.996063,456.210388 99.466484,458.833344 
	C122.709908,466.994293 145.991608,475.046967 169.206284,483.288635 
	C176.101364,485.736481 178.160324,489.457184 176.204681,494.676910 
	C174.509216,499.202209 169.488174,500.973297 163.508286,498.896179 
	C138.823395,490.321930 114.154686,481.700836 89.498444,473.044464 
	C79.762215,469.626282 70.088676,466.029816 60.359985,462.589783 
	C50.473122,459.093811 47.869308,454.515900 49.499138,443.976074 
	C53.612293,417.377075 57.608894,390.760101 61.662701,364.151917 
	C62.663357,357.583862 63.624577,351.008331 64.741280,344.459656 
	C68.119202,324.650543 85.684319,316.702301 103.014954,327.096985 
	C122.445992,338.751556 141.873306,350.412354 161.312775,362.052856 
	C162.718674,362.894714 164.026764,364.014496 165.906265,364.043823 
	C167.598831,362.670807 166.941422,360.682709 166.944870,358.983063 
	C167.013153,325.318024 166.917145,291.652222 167.133759,257.988342 
	C167.166290,252.933701 165.262848,250.433655 160.977798,247.947281 
	C130.576004,230.306854 100.369270,212.330276 70.098755,194.463547 
	C69.412155,194.058304 68.706482,193.685394 66.959053,192.712326 
	C68.333672,200.737228 69.463112,207.847015 70.779343,214.922043 
	C75.490944,240.247986 80.285622,265.558441 85.000771,290.883759 
	C85.991982,296.207611 83.490738,300.091675 78.668243,301.078491 
	C73.950218,302.043884 70.011154,299.223389 68.876808,293.487335 
	C65.458199,276.200500 62.122456,258.895660 58.956203,241.560959 
	C55.312668,221.613220 51.841564,201.633560 48.386112,181.652115 
	C47.146080,174.481552 49.529526,169.847717 56.575787,167.011627 
	C70.628784,161.355362 84.820976,156.042633 98.984138,150.662903 
	C117.508461,143.626633 136.120804,136.818054 154.583511,129.624664 
	C173.347610,122.313820 189.826187,133.087418 189.178314,153.239380 
	C188.531662,173.354034 186.732666,193.429916 185.595688,213.531677 
	C185.288177,218.968414 185.549088,224.437317 185.549088,229.867630 
	C187.817276,230.814621 189.181488,229.245911 190.664505,228.358932 
	C220.258163,210.659378 249.815918,192.899719 279.431824,175.237579 
	C282.276489,173.541092 283.730103,171.643982 283.718170,168.117371 
	C283.601379,133.619217 283.654419,99.120514 283.615997,64.622009 
	C283.614410,63.207253 284.125610,61.620224 282.456024,59.888325 
	C277.294708,63.923988 272.080261,67.937790 266.933655,72.036789 
	C248.560959,86.669640 230.211349,101.331436 211.852905,115.982155 
	C211.592392,116.190063 211.332611,116.398972 211.069229,116.603195 
	C204.992950,121.314705 199.972687,121.517784 196.614609,117.188614 
	C193.262253,112.866798 194.459549,107.942154 200.561462,103.111679 
	C222.376740,85.841972 244.278366,68.681236 266.166718,51.504013 
	C271.014801,47.699409 275.969910,44.031414 280.827057,40.238148 
	C289.608948,33.379780 294.215851,33.157654 303.143585,40.043877 
	C323.856812,56.020546 344.447998,72.155487 365.076019,88.242424 
	C370.199677,92.238144 375.333496,96.224358 380.361664,100.338341 
	C393.175232,110.822235 392.788879,128.736710 379.104889,138.210403 
	C372.293549,142.925980 364.647736,146.435623 357.382141,150.495682 
	C342.550476,158.783752 327.716614,167.067856 312.900848,175.384262 
	C312.069611,175.850845 311.393921,176.594666 310.785004,177.095078 
	C310.828857,179.111267 312.317596,179.432922 313.400360,180.083740 
	C343.527832,198.192017 373.676422,216.265152 403.779175,234.414337 
	C406.651184,236.145874 409.005493,237.163101 412.418610,235.112915 
	C443.263031,216.585266 474.218903,198.243103 505.135406,179.835342 
	C505.829956,179.421814 506.446014,178.876465 507.362274,178.197220 
	C505.594482,175.657043 502.877625,175.214478 500.504730,174.307663 
	C472.506897,163.608078 444.496460,152.941498 416.481415,142.287003 
	C412.871552,140.914139 409.893707,139.103409 409.576050,134.702759 
	C409.077484,127.795265 414.520599,123.917297 421.695892,126.529266 
	C435.775665,131.654648 449.768951,137.018509 463.782501,142.324738 
	C484.336304,150.107452 504.869354,157.944824 525.425598,165.721008 
	C534.519165,169.160995 537.634827,174.186783 536.077271,183.875778 
	C531.010925,215.390457 525.829346,246.886597 520.724670,278.395142 
	C520.086731,282.332703 519.768799,286.306519 518.371216,290.111053 
	C513.572083,303.175415 500.715240,309.150482 487.663605,304.294922 
	C480.254364,301.538513 473.833496,296.970276 467.144318,292.933289 
	C415.084412,261.514496 363.084045,229.997116 311.053131,198.530258 
	C305.779266,195.340775 300.366028,192.378754 295.137177,189.119171 
	C292.975189,187.771423 291.343781,187.979202 289.220917,189.247925 
	C256.050110,209.072327 222.860443,228.865784 189.582657,248.509705 
	C185.524673,250.905106 183.917694,253.697525 183.942444,258.497009 
	C184.107529,290.494446 183.989777,322.493561 183.905289,354.491943 
	C183.890335,360.152344 183.698013,365.817200 183.396683,371.469818 
	C183.243652,374.340729 184.385086,376.148438 186.788208,377.564178 
	C220.802368,397.602448 254.820343,417.634644 288.746674,437.820862 
	C291.836365,439.659241 294.044800,439.305176 296.911591,437.602173 
	C329.710266,418.118195 362.536804,398.680267 395.461090,379.409821 
	C399.229950,377.203979 400.817871,374.770386 400.791962,370.329529 
	C400.628387,342.331757 400.735046,314.332367 400.759521,286.333527 
	C400.761536,284.010956 400.577667,281.677704 401.697083,279.479553 
	C403.507721,275.924072 406.420563,274.278870 410.282806,274.892761 
	C414.081268,275.496460 416.629547,277.785919 417.205139,281.748383 
	C417.442780,283.384155 417.331299,285.074646 417.331268,286.740265 
	C417.330444,314.905792 417.355255,343.071411 417.270538,371.236725 
	C417.260803,374.477417 417.868042,376.792847 420.984344,378.624908 
	C451.575714,396.609406 482.076263,414.748322 512.611633,432.828156 
	C513.732178,433.491608 514.945435,433.998474 516.632996,434.834808 
	C517.239746,429.081146 515.450745,424.044922 514.526245,418.986389 
	C509.774170,392.983063 504.839264,367.013123 500.990387,340.854553 
	C500.676849,338.723785 500.635406,336.536011 500.656342,334.376526 
	C500.698761,330.011566 503.175507,327.491821 507.303619,326.976318 
	C511.382416,326.466980 514.735474,328.221466 515.791077,332.327087 
	C517.237000,337.951050 518.202393,343.706360 519.207336,349.434601 
	C524.809387,381.366638 530.363770,413.307007 535.928223,445.245636 
	C537.421631,453.817780 534.261169,459.235748 525.380005,462.513031 
	C501.012146,471.504974 476.589905,480.349701 452.194183,489.266327 
	C444.378418,492.123016 436.390381,494.601624 428.809204,497.987701 
	C411.978149,505.505157 393.844238,491.901917 395.182129,472.023163 
	C396.735901,448.937195 397.727020,425.813171 398.919891,402.703491 
	C398.994507,401.257660 399.295959,399.704315 398.082092,398.032410 
	C394.774780,398.933319 392.125275,401.261017 389.193573,402.978943 
	C361.023224,419.486542 332.901123,436.076721 304.702454,452.535645 
	C301.655243,454.314270 300.243958,456.313232 300.258301,460.013367 
	C300.391632,494.344788 300.333282,528.676941 300.348663,563.008850 
	C300.349243,564.291138 300.535004,565.573364 300.635559,566.869507 
	C303.086578,567.164062 304.165192,565.400146 305.513580,564.344604 
	C328.473999,546.370789 351.391510,528.342224 374.325836,510.335114 
	C375.503815,509.410217 376.678711,508.448151 377.973450,507.711426 
	C381.793304,505.537750 386.943481,506.499268 389.259949,509.717468 
	C391.560730,512.914001 391.180695,517.603638 387.930969,520.632019 
	C384.770477,523.577148 381.297607,526.195557 377.890015,528.865601 
	C364.515320,539.345520 351.112183,549.789185 337.445740,560.474304 
M145.366425,219.049164 
	C152.591782,223.387787 159.817139,227.726395 167.434372,232.300323 
	C169.603256,225.243805 168.547729,218.679871 169.024704,212.270157 
	C170.444702,193.187897 171.662155,174.086090 172.602524,154.974411 
	C173.090561,145.055893 168.803268,142.113434 159.636734,145.568375 
	C133.158447,155.548248 106.709465,165.605927 80.266953,175.680267 
	C78.978722,176.171066 77.225258,176.318054 76.909393,178.637177 
	C99.452164,191.948883 122.093010,205.318481 145.366425,219.049164 
M454.467377,418.101959 
	C442.141998,410.751984 429.816589,403.402008 416.950623,395.729675 
	C416.534210,398.194000 416.187592,399.476562 416.117462,400.774078 
	C414.814484,424.874664 413.448761,448.972534 412.318573,473.081390 
	C411.914215,481.706818 416.575439,484.805939 424.819122,481.746033 
	C450.885681,472.070587 476.934601,462.347565 502.979614,452.614197 
	C504.464447,452.059326 506.285797,451.926697 507.225647,449.646088 
	C489.863586,439.261719 472.480774,428.864960 454.467377,418.101959 
M429.279755,244.614777 
	C428.166412,245.532486 426.489929,245.824829 425.978973,247.703766 
	C426.393433,248.096390 426.797241,248.639755 427.333557,248.963760 
	C448.569244,261.792786 469.761749,274.694916 491.097229,287.356079 
	C497.374084,291.080994 502.432220,288.097870 503.580414,280.724884 
	C506.417145,262.509613 509.335815,244.307068 512.231812,226.101059 
	C513.965698,215.200317 515.718994,204.302673 517.591125,192.606750 
	C487.768524,210.179321 458.830139,227.230911 429.279755,244.614777 
M97.368034,343.178558 
	C96.655128,342.747620 95.949608,342.303894 95.228195,341.887695 
	C86.806747,337.029144 82.770294,338.843811 81.105423,348.507599 
	C79.187004,359.643127 77.456032,370.811615 75.717155,381.977234 
	C72.987015,399.507904 70.318436,417.048187 67.446404,435.738739 
	C98.601761,417.103668 128.856979,399.006989 159.845627,380.471588 
	C138.560211,367.759888 118.283058,355.650299 97.368034,343.178558 
M303.801453,61.838989 
	C298.817169,59.219334 300.450439,63.626480 300.444611,65.325630 
	C300.338562,96.113846 300.358948,126.902527 300.391235,157.691071 
	C300.392731,159.114395 299.893036,160.696869 301.293884,162.130951 
	C301.810608,162.020432 302.504944,162.031540 303.027222,161.737274 
	C324.763702,149.489227 346.554108,137.333969 368.164703,124.867111 
	C374.485107,121.220970 374.442169,117.098038 368.433838,112.368637 
	C347.125977,95.596359 325.725800,78.941376 303.801453,61.838989 
M283.654053,545.499939 
	C283.654053,518.750732 283.654053,492.001556 283.654053,465.290863 
	C282.618164,465.225098 282.228302,465.073914 281.992371,465.203339 
	C260.532898,476.976501 239.012085,488.640991 217.676346,500.634766 
	C210.169998,504.854401 210.141907,510.460602 217.142212,515.930481 
	C238.408432,532.547363 259.728912,549.094788 281.040283,565.653748 
	C281.651245,566.128418 282.245514,566.896606 283.653046,566.166931 
	C283.653046,559.756348 283.653046,553.128052 283.654053,545.499939 
z"/>
</svg>